<?xml version="1.0" standalone="no"?><svg xmlns="http://www.w3.org/2000/svg" viewBox="0 0 1440 320"><path fill="#5000ca" fill-opacity="1" d="M0,320L16,277.3C32,235,64,149,96,128C128,107,160,149,192,170.7C224,192,256,192,288,202.7C320,213,352,235,384,256C416,277,448,299,480,282.7C512,267,544,213,576,186.7C608,160,640,160,672,176C704,192,736,224,768,245.3C800,267,832,277,864,245.3C896,213,928,139,960,96C992,53,1024,43,1056,64C1088,85,1120,139,1152,138.7C1184,139,1216,85,1248,74.7C1280,64,1312,96,1344,96C1376,96,1408,64,1424,48L1440,32L1440,320L1424,320C1408,320,1376,320,1344,320C1312,320,1280,320,1248,320C1216,320,1184,320,1152,320C1120,320,1088,320,1056,320C1024,320,992,320,960,320C928,320,896,320,864,320C832,320,800,320,768,320C736,320,704,320,672,320C640,320,608,320,576,320C544,320,512,320,480,320C448,320,416,320,384,320C352,320,320,320,288,320C256,320,224,320,192,320C160,320,128,320,96,320C64,320,32,320,16,320L0,320Z"></path></svg>